<svg width="19" height="20" viewBox="0 0 19 20" fill="none" xmlns="http://www.w3.org/2000/svg">
<path d="M17.181 10.6C17.3143 10.6 17.4381 10.6571 17.5429 10.7619L18.7619 11.981C18.9714 12.181 18.9714 12.5143 18.7619 12.7143L17.8095 13.6667L15.8571 11.7143L16.8095 10.7619C16.9143 10.6571 17.0476 10.6 17.181 10.6ZM15.3048 12.2667L17.2571 14.219L11.4857 20H9.52381V18.0381L15.3048 12.2667ZM7.61905 17.1429L5.71429 19.0476H1.90476C0.857143 19.0476 0 18.1905 0 17.1429V3.80952C0 2.7619 0.857143 1.90476 1.90476 1.90476H5.88571C6.28571 0.8 7.33333 0 8.57143 0C9.80952 0 10.8571 0.8 11.2571 1.90476H15.2381C16.2857 1.90476 17.1429 2.7619 17.1429 3.80952V7.61905L15.2381 9.52381V3.80952H13.3333V5.71429H3.80952V3.80952H1.90476V17.1429H7.61905ZM8.57143 1.90476C8.04762 1.90476 7.61905 2.33333 7.61905 2.85714C7.61905 3.38095 8.04762 3.80952 8.57143 3.80952C9.09524 3.80952 9.52381 3.38095 9.52381 2.85714C9.52381 2.33333 9.09524 1.90476 8.57143 1.90476Z" fill="#00BBF0"/>
</svg>
